<svg width="239" height="239" viewBox="0 0 239 239" fill="none" xmlns="http://www.w3.org/2000/svg">
<circle cx="183.5" cy="47.5" r="32.5" fill="#F97316"/>
<circle cx="183.5" cy="47.5" r="32.5" stroke="white"/>
<path fill-rule="evenodd" clip-rule="evenodd" d="M119.5 194C160.645 194 194 160.645 194 119.5C194 110.382 192.362 101.647 189.364 93.5727C205.944 91.3284 219.778 80.4392 226.179 65.5929C234.379 81.7889 239 100.105 239 119.5C239 185.498 185.498 239 119.5 239C104.947 239 91.0024 236.399 78.1046 231.636L104.284 192.445C109.196 193.464 114.286 194 119.5 194ZM78.0019 181.381C58.0974 168.007 45 145.283 45 119.5C45 78.3548 78.3548 45 119.5 45C125.17 45 130.693 45.6335 136 46.8336C136.059 29.7581 145.224 14.8279 158.893 6.64507C146.559 2.34005 133.303 0 119.5 0C53.502 0 0 53.502 0 119.5C0 160.886 21.0382 197.358 53.0033 218.805L78.0019 181.381Z" fill="#404145"/>
<path fill-rule="evenodd" clip-rule="evenodd" d="M119.5 194C160.645 194 194 160.645 194 119.5C194 110.382 192.362 101.647 189.364 93.5727C205.944 91.3284 219.778 80.4392 226.179 65.5929C234.379 81.7889 239 100.105 239 119.5C239 185.498 185.498 239 119.5 239C104.947 239 91.0024 236.399 78.1046 231.636L104.284 192.445C109.196 193.464 114.286 194 119.5 194ZM78.0019 181.381C58.0974 168.007 45 145.283 45 119.5C45 78.3548 78.3548 45 119.5 45C125.17 45 130.693 45.6335 136 46.8336C136.059 29.7581 145.224 14.8279 158.893 6.64507C146.559 2.34005 133.303 0 119.5 0C53.502 0 0 53.502 0 119.5C0 160.886 21.0382 197.358 53.0033 218.805L78.0019 181.381Z" fill="#12512A"/>
</svg>
