<svg width="763" height="154" viewBox="0 0 763 154" fill="none" xmlns="http://www.w3.org/2000/svg">
<rect x="5" y="15" width="358" height="111" fill="#166534"/>
<rect x="5" y="15" width="358" height="111" fill="black" fill-opacity="0.2"/>
<path d="M374.748 25.4H388.828V115H374.748V25.4ZM399.373 25.4H417.037L430.733 79.032H430.989V25.4H443.533V115H429.069L412.173 49.592H411.917V115H399.373V25.4ZM453.998 25.4H475.502C482.499 25.4 487.747 27.2773 491.246 31.032C494.745 34.7867 496.494 40.2907 496.494 47.544V92.856C496.494 100.109 494.745 105.613 491.246 109.368C487.747 113.123 482.499 115 475.502 115H453.998V25.4ZM475.246 102.2C477.55 102.2 479.299 101.517 480.494 100.152C481.774 98.7867 482.414 96.568 482.414 93.496V46.904C482.414 43.832 481.774 41.6133 480.494 40.248C479.299 38.8827 477.55 38.2 475.246 38.2H468.078V102.2H475.246ZM526.478 116.28C519.651 116.28 514.446 114.36 510.862 110.52C507.278 106.595 505.486 101.005 505.486 93.752V25.4H519.566V94.776C519.566 97.848 520.163 100.067 521.358 101.432C522.638 102.797 524.43 103.48 526.734 103.48C529.038 103.48 530.787 102.797 531.982 101.432C533.262 100.067 533.902 97.848 533.902 94.776V25.4H547.47V93.752C547.47 101.005 545.678 106.595 542.094 110.52C538.51 114.36 533.305 116.28 526.478 116.28ZM575.802 116.28C568.975 116.28 563.813 114.36 560.314 110.52C556.815 106.595 555.066 101.005 555.066 93.752V88.632H568.378V94.776C568.378 100.579 570.81 103.48 575.674 103.48C578.063 103.48 579.855 102.797 581.05 101.432C582.33 99.9813 582.97 97.6773 582.97 94.52C582.97 90.7653 582.117 87.48 580.41 84.664C578.703 81.7627 575.546 78.3067 570.938 74.296C565.135 69.176 561.082 64.568 558.778 60.472C556.474 56.2907 555.322 51.5973 555.322 46.392C555.322 39.3093 557.114 33.848 560.698 30.008C564.282 26.0827 569.487 24.12 576.314 24.12C583.055 24.12 588.133 26.0827 591.546 30.008C595.045 33.848 596.794 39.3947 596.794 46.648V50.36H583.482V45.752C583.482 42.68 582.885 40.4613 581.69 39.096C580.495 37.6453 578.746 36.92 576.442 36.92C571.749 36.92 569.402 39.7787 569.402 45.496C569.402 48.7387 570.255 51.768 571.962 54.584C573.754 57.4 576.954 60.8133 581.562 64.824C587.45 69.944 591.503 74.5947 593.722 78.776C595.941 82.9573 597.05 87.864 597.05 93.496C597.05 100.835 595.215 106.467 591.546 110.392C587.962 114.317 582.714 116.28 575.802 116.28ZM616.131 38.2H601.411V25.4H644.931V38.2H630.211V115H616.131V38.2ZM651.748 25.4H672.612C679.865 25.4 685.156 27.1067 688.484 30.52C691.812 33.848 693.476 39.0107 693.476 46.008V51.512C693.476 60.8133 690.404 66.7013 684.26 69.176V69.432C687.673 70.456 690.063 72.5467 691.428 75.704C692.879 78.8613 693.604 83.0853 693.604 88.376V104.12C693.604 106.68 693.689 108.771 693.86 110.392C694.031 111.928 694.457 113.464 695.14 115H680.804C680.292 113.549 679.951 112.184 679.78 110.904C679.609 109.624 679.524 107.32 679.524 103.992V87.608C679.524 83.512 678.841 80.6533 677.476 79.032C676.196 77.4107 673.935 76.6 670.692 76.6H665.828V115H651.748V25.4ZM670.948 63.8C673.764 63.8 675.855 63.0747 677.22 61.624C678.671 60.1733 679.396 57.7413 679.396 54.328V47.416C679.396 44.1733 678.799 41.8267 677.604 40.376C676.495 38.9253 674.703 38.2 672.228 38.2H665.828V63.8H670.948ZM714.301 76.856L697.277 25.4H712.253L721.853 58.296H722.109L731.709 25.4H745.405L728.381 76.856V115H714.301V76.856Z" fill="#FDBA74"/>
<path d="M38.213 116.28C31.4717 116.28 26.309 114.36 22.725 110.52C19.2263 106.68 17.477 101.261 17.477 94.264V46.136C17.477 39.1387 19.2263 33.72 22.725 29.88C26.309 26.04 31.4717 24.12 38.213 24.12C44.9543 24.12 50.0743 26.04 53.573 29.88C57.157 33.72 58.949 39.1387 58.949 46.136V55.608H45.637V45.24C45.637 39.6933 43.2903 36.92 38.597 36.92C33.9037 36.92 31.557 39.6933 31.557 45.24V95.288C31.557 100.749 33.9037 103.48 38.597 103.48C43.2903 103.48 45.637 100.749 45.637 95.288V81.592H58.949V94.264C58.949 101.261 57.157 106.68 53.573 110.52C50.0743 114.36 44.9543 116.28 38.213 116.28ZM87.853 116.28C81.0263 116.28 75.821 114.36 72.237 110.52C68.653 106.595 66.861 101.005 66.861 93.752V25.4H80.941V94.776C80.941 97.848 81.5383 100.067 82.733 101.432C84.013 102.797 85.805 103.48 88.109 103.48C90.413 103.48 92.1623 102.797 93.357 101.432C94.637 100.067 95.277 97.848 95.277 94.776V25.4H108.845V93.752C108.845 101.005 107.053 106.595 103.469 110.52C99.885 114.36 94.6797 116.28 87.853 116.28ZM118.873 25.4H139.737C146.99 25.4 152.281 27.1067 155.609 30.52C158.937 33.848 160.601 39.0107 160.601 46.008V51.512C160.601 60.8133 157.529 66.7013 151.385 69.176V69.432C154.798 70.456 157.188 72.5467 158.553 75.704C160.004 78.8613 160.729 83.0853 160.729 88.376V104.12C160.729 106.68 160.814 108.771 160.985 110.392C161.156 111.928 161.582 113.464 162.265 115H147.929C147.417 113.549 147.076 112.184 146.905 110.904C146.734 109.624 146.649 107.32 146.649 103.992V87.608C146.649 83.512 145.966 80.6533 144.601 79.032C143.321 77.4107 141.06 76.6 137.817 76.6H132.953V115H118.873V25.4ZM138.073 63.8C140.889 63.8 142.98 63.0747 144.345 61.624C145.796 60.1733 146.521 57.7413 146.521 54.328V47.416C146.521 44.1733 145.924 41.8267 144.729 40.376C143.62 38.9253 141.828 38.2 139.353 38.2H132.953V63.8H138.073ZM181.378 25.4H200.45L215.042 115H200.962L198.402 97.208V97.464H182.402L179.842 115H166.786L181.378 25.4ZM196.738 85.304L190.466 41.016H190.21L184.066 85.304H196.738ZM227.006 38.2H212.286V25.4H255.806V38.2H241.086V115H227.006V38.2ZM262.623 25.4H301.023V38.2H276.703V61.88H296.031V74.68H276.703V102.2H301.023V115H262.623V25.4ZM309.123 25.4H330.627C337.624 25.4 342.872 27.2773 346.371 31.032C349.87 34.7867 351.619 40.2907 351.619 47.544V92.856C351.619 100.109 349.87 105.613 346.371 109.368C342.872 113.123 337.624 115 330.627 115H309.123V25.4ZM330.371 102.2C332.675 102.2 334.424 101.517 335.619 100.152C336.899 98.7867 337.539 96.568 337.539 93.496V46.904C337.539 43.832 336.899 41.6133 335.619 40.248C334.424 38.8827 332.675 38.2 330.371 38.2H323.203V102.2H330.371Z" fill="#FDBA74"/>
</svg>
